#!OML:ASF Y:\EmotionMaleHayes\Project 1\Capture day 1\Session 1\Male1.ASF
:FULLY-SPECIFIED
:DEGREES
35
root 2.06714 16.0426 -3.54043 -73.5183 100.06 -80.9441
lowerback 13.5357 -2.29726 -13.2976
upperback 3.42004 -4.66107 -0.300714
thorax -2.84751 -2.20309 7.85777
lowerneck -28.4712 4.04653 1.71889
upperneck 20.6121 5.76222 -3.07984
head 11.5448 2.31077 -0.399605
rclavicle 2.69353e-014 -4.47266e-015
rhumerus -74.0797 21.1868 -88.3387
rradius 82.5513
rwrist -17.6542
rhand -27.1067 -30.0667
rfingers 7.12502
rthumb -0.523135 -60.0458
lclavicle 2.69353e-014 -4.47266e-015
lhumerus -37.7858 -35.6386 97.9188
lradius 94.3893
lwrist 13.6558
lhand -40.884 -36.1042
lfingers 7.12502
lthumb -13.8198 -6.58325
rfemur -43.6518 -10.3733 14.4113
rtibia 39.1385
rfoot -8.85568 -3.95712
rtoes 26.3596
lfemur 19.4597 -1.14782 -30.9195
ltibia 70.9156
lfoot 9.27261 0.792981
ltoes -2.10959
36
root 2.66027 15.9264 -3.56579 -80.1157 99.2669 -86.5994
lowerback 14.8346 -1.55068 -12.8935
upperback 3.39331 -3.80363 -0.0249066
thorax -3.79164 -1.71226 7.90869
lowerneck -28.0172 3.91825 1.64206
upperneck 20.3913 5.65767 -3.23898
head 11.3815 2.24723 -0.472461
rclavicle 1.02374e-014 -1.0138e-014
rhumerus -70.9333 21.1277 -88.3994
rradius 82.6545
rwrist -17.1345
rhand -27.2907 -30.1345
rfingers 7.12502
rthumb -0.700848 -60.1131
lclavicle 1.02374e-014 -1.0138e-014
lhumerus -40.4488 -34.2613 100.034
lradius 91.78
lwrist 13.9167
lhand -41.2366 -35.6874
lfingers 7.12502
lthumb -14.1596 -6.18995
rfemur -44.0526 -9.42242 15.3837
rtibia 45.0147
rfoot -10.8001 -4.30017
rtoes 18.8933
lfemur 18.1125 0.483686 -29.5675
ltibia 75.5728
lfoot 8.90009 -0.629618
ltoes -0.961826
37
root 3.25342 15.8497 -3.60329 -93.9696 94.7831 -99.893
lowerback 15.5697 -0.961654 -8.4085
upperback 3.54682 -2.36731 1.10684
thorax -4.52066 -1.01188 6.39314
lowerneck -27.8858 3.76144 1.7386
upperneck 20.1463 5.45794 -3.48721
head 11.2724 2.13776 -0.617895
rclavicle 1.97791e-014 -1.09332e-014
rhumerus -67.1138 20.9341 -88.4687
rradius 82.3496
rwrist -16.1151
rhand -27.5321 -29.9361
rfingers 7.12502
rthumb -0.933977 -59.9138
lclavicle 1.97791e-014 -1.09332e-014
lhumerus -42.4494 -32.879 101.56
lradius 88.841
lwrist 14.0671
lhand -41.8137 -36.0567
lfingers 7.12502
lthumb -14.7157 -6.599
rfemur -44.1134 -5.961 20.3758
rtibia 49.2987
rfoot -13.6836 -5.20025
rtoes 19.9025
lfemur 16.3838 2.84678 -23.6529
ltibia 79.5155
lfoot 9.05808 -5.14402
ltoes 0.266459
38
root 3.85075 15.7905 -3.63003 -10.0569 87.6801 -15.3913
lowerback 16.4152 -0.405874 -3.18047
upperback 3.83245 -0.728792 2.32319
thorax -5.02662 -0.234573 4.41776
lowerneck -28.3502 3.49999 1.90174
upperneck 20.1972 5.00342 -3.42517
head 11.3627 1.94604 -0.696932
rclavicle 4.57205e-015 -3.45885e-014
rhumerus -62.8699 20.4521 -88.6381
rradius 81.7493
rwrist -14.6776
rhand -28.1919 -28.7471
rfingers 7.12502
rthumb -1.57126 -58.7211
lclavicle 4.57205e-015 -3.45885e-014
lhumerus -44.1409 -31.6073 102.512
lradius 86.0249
lwrist 14.121
lhand -42.1801 -35.6419
lfingers 7.12502
lthumb -15.0687 -6.21034
rfemur -41.8481 -3.25539 26.6887
rtibia 50.6101
rfoot -15.5041 -4.53721
rtoes 20.4226
lfemur 14.6583 5.28663 -16.4776
ltibia 83.3979
lfoot 15.3804 -30.3922
ltoes -0.668982
39
root 4.46042 15.7596 -3.67373 -49.1291 84.1554 -53.8214
lowerback 16.8025 -0.128861 1.2435
upperback 4.33671 0.465869 3.02246
thorax -4.8001 0.326692 2.39194
lowerneck -28.5059 3.3636 2.20907
upperneck 20.0029 4.6211 -3.24631
head 11.3065 1.82195 -0.747679
rclavicle 1.83876e-014 -6.36111e-015
rhumerus -58.0361 20.2223 -88.8432
rradius 81.2363
rwrist -11.9286
rhand -26.9514 -30.3013
rfingers 7.12502
rthumb -0.373176 -60.2808
lclavicle 1.83876e-014 -6.36111e-015
lhumerus -45.4911 -30.0052 102.621
lradius 83.3279
lwrist 14.2412
lhand -42.8256 -35.5347
lfingers 7.12502
lthumb -15.6904 -6.15081
rfemur -38.2229 -2.05036 31.4908
rtibia 50.7264
rfoot -17.355 -3.30959
rtoes 18.609
lfemur 12.5302 7.35541 -10.9329
ltibia 86.3573
lfoot 25.663 -55.4521
ltoes -1.30465
